<svg xmlns="http://www.w3.org/2000/svg" xmlns:xlink="http://www.w3.org/1999/xlink" xmlns:lucid="lucid" width="1281" height="601"><g transform="translate(-979.5 660.5)" lucid:page-tab-id="0_0"><path d="M1000-1000h1500V0H1000z" fill="#fff"/><path d="M1770-640c16.57 0 30 13.43 30 30v180c0 16.57-13.43 30-30 30h-300c-16.57 0-30-13.43-30-30v-180c0-16.57 13.43-30 30-30zM1330-320c16.57 0 30 13.43 30 30v180c0 16.57-13.43 30-30 30h-300c-16.57 0-30-13.43-30-30v-180c0-16.57 13.43-30 30-30zM1770-320c16.57 0 30 13.43 30 30v180c0 16.57-13.43 30-30 30h-300c-16.57 0-30-13.43-30-30v-180c0-16.57 13.43-30 30-30zM2210-320c16.57 0 30 13.43 30 30v180c0 16.57-13.43 30-30 30h-300c-16.57 0-30-13.43-30-30v-180c0-16.57 13.43-30 30-30z" stroke="#3a414a" fill-opacity="0"/><path d="M1500-532a8 8 0 0 1 8-8h224a8 8 0 0 1 8 8v44a8 8 0 0 1-8 8h-224a8 8 0 0 1-8-8z" fill="none"/><use xlink:href="#a" transform="matrix(1,0,0,1,1500,-540) translate(12.671913580246908 34.48888888888889)"/><path d="M1060-212a8 8 0 0 1 8-8h224a8 8 0 0 1 8 8v44a8 8 0 0 1-8 8h-224a8 8 0 0 1-8-8z" fill="none"/><use xlink:href="#b" transform="matrix(1,0,0,1,1060,-220) translate(-3.7249999999999943 34.48888888888889)"/><path d="M1500-212a8 8 0 0 1 8-8h224a8 8 0 0 1 8 8v44a8 8 0 0 1-8 8h-224a8 8 0 0 1-8-8z" fill="none"/><use xlink:href="#c" transform="matrix(1,0,0,1,1500,-220) translate(48.520679012345695 34.48888888888889)"/><use xlink:href="#d" transform="matrix(1,0,0,1,1500,-220) translate(179.01018518518515 34.48888888888889)"/><path d="M1940-212a8 8 0 0 1 8-8h224a8 8 0 0 1 8 8v44a8 8 0 0 1-8 8h-224a8 8 0 0 1-8-8z" fill="none"/><use xlink:href="#c" transform="matrix(1,0,0,1,1940,-220) translate(48.520679012345695 34.48888888888889)"/><use xlink:href="#e" transform="matrix(1,0,0,1,1940,-220) translate(179.01018518518515 34.48888888888889)"/><path d="M1620-399v62.12" stroke="#3a414a" fill="none"/><path d="M1620.47-399h-.94v-.5h.94z" stroke="#3a414a" stroke-width=".05" fill="#3a414a"/><path d="M1620-322.12l-4.63-14.26h9.27z" stroke="#3a414a" fill="#3a414a"/><path d="M1620.03-399v.17l.05.22.04.2.05.24.06.23.08.23.1.24.1.24.12.25.14.26.15.26.2.28.2.3.23.3.27.33.3.34.37.38.43.4.5.43.6.48.7.52.86.57 1.06.64 1.3.73 1.67.82 2.14.95 2.86 1.13 3.9 1.35 5.55 1.67 8.33 2.12 13.48 2.84 24.62 4.1 59.97 7.33 239.07 24.26 24.62 4.1 13.48 2.83 8.33 2.12 5.55 1.67 3.9 1.35 2.86 1.13.16.07" stroke="#3a414a" stroke-linejoin="round" fill="none"/><path d="M1620.5-399l-.96.02v-.52h.93z" stroke="#3a414a" stroke-width=".05" fill="#3a414a"/><path d="M2058.8-321.58l-13.7-6.1 6.2-6.9z" stroke="#3a414a" fill="#3a414a"/><path d="M1180.03-321v-.17l.05-.22.04-.2.05-.24.06-.23.08-.23.1-.24.1-.24.12-.25.14-.26.15-.26.2-.28.2-.3.23-.3.27-.33.3-.34.37-.38.43-.4.5-.43.6-.48.7-.52.86-.57 1.06-.64 1.3-.73 1.67-.82 2.14-.95 2.86-1.13 3.9-1.35 5.55-1.67 8.33-2.12 13.48-2.84 24.62-4.1 59.97-7.33 239.07-24.26 24.62-4.1 13.48-2.83 8.33-2.12 5.55-1.67 3.9-1.35 2.86-1.13.16-.07" stroke="#3a414a" stroke-linejoin="round" fill="none"/><path d="M1180.5-321l-.03.5h-.94v-.52z" stroke="#3a414a" stroke-width=".05" fill="#3a414a"/><path d="M1618.8-398.42l-7.5 13-6.2-6.9z" stroke="#3a414a" fill="#3a414a"/><path d="M1220-392a8 8 0 0 1 8-8h224a8 8 0 0 1 8 8v44a8 8 0 0 1-8 8h-224a8 8 0 0 1-8-8z" fill="none"/><use xlink:href="#f" transform="matrix(1,0,0,1,1220,-400) translate(97.61790123456791 34.48888888888889)"/><path d="M1460-372a8 8 0 0 1 8-8h224a8 8 0 0 1 8 8v44a8 8 0 0 1-8 8h-224a8 8 0 0 1-8-8z" fill="none"/><use xlink:href="#f" transform="matrix(1,0,0,1,1460,-380) translate(97.61790123456791 34.48888888888889)"/><path d="M1800-392a8 8 0 0 1 8-8h224a8 8 0 0 1 8 8v44a8 8 0 0 1-8 8h-224a8 8 0 0 1-8-8z" fill="none"/><g><use xlink:href="#f" transform="matrix(1,0,0,1,1800,-400) translate(97.61790123456791 34.48888888888889)"/></g><defs><path fill="#3a414a" d="M275 0h-61l-44-196L126 0H64L0-248h53L97-49l45-199h58l43 199 44-199h52" id="g"/><path fill="#3a414a" d="M135-150c-39-12-60 13-60 57V0H25l-1-190h47c2 13-1 29 3 40 6-28 27-53 61-41v41" id="h"/><path fill="#3a414a" d="M133-34C117-15 103 5 69 4 32 3 11-16 11-54c-1-60 55-63 116-61 1-26-3-47-28-47-18 1-26 9-28 27l-52-2c7-38 36-58 82-57s74 22 75 68l1 82c-1 14 12 18 25 15v27c-30 8-71 5-69-32zm-48 3c29 0 43-24 42-57-32 0-66-3-65 30 0 17 8 27 23 27" id="i"/><path fill="#3a414a" d="M135-194c53 0 70 44 70 98 0 56-19 98-73 100-31 1-45-17-59-34 3 33 2 69 2 105H25l-1-265h48c2 10 0 23 3 31 11-24 29-35 60-35zM114-30c33 0 39-31 40-66 0-38-9-64-40-64-56 0-55 130 0 130" id="j"/><path fill="#3a414a" d="M185-48c-13 30-37 53-82 52C43 2 14-33 14-96s30-98 90-98c62 0 83 45 84 108H66c0 31 8 55 39 56 18 0 30-7 34-22zm-45-69c5-46-57-63-70-21-2 6-4 13-4 21h74" id="k"/><path fill="#3a414a" d="M67-125c0 53 21 87 73 88 37 1 54-22 65-47l45 17C233-25 199 4 140 4 58 4 20-42 15-125 8-235 124-281 211-232c18 10 29 29 36 50l-46 12c-8-25-30-41-62-41-52 0-71 34-72 86" id="l"/><path fill="#3a414a" d="M110-194c64 0 96 36 96 99 0 64-35 99-97 99-61 0-95-36-95-99 0-62 34-99 96-99zm-1 164c35 0 45-28 45-65 0-40-10-65-43-65-34 0-45 26-45 65 0 36 10 65 43 65" id="m"/><path fill="#3a414a" d="M220-157c-53 9-28 100-34 157h-49v-107c1-27-5-49-29-50C55-147 81-57 75 0H25l-1-190h47c2 12-1 28 3 38 10-53 101-56 108 0 13-22 24-43 59-42 82 1 51 116 57 194h-49v-107c-1-25-5-48-29-50" id="n"/><path fill="#3a414a" d="M135-194c87-1 58 113 63 194h-50c-7-57 23-157-34-157-59 0-34 97-39 157H25l-1-190h47c2 12-1 28 3 38 12-26 28-41 61-42" id="o"/><path fill="#3a414a" d="M115-3C79 11 28 4 28-45v-112H4v-33h27l15-45h31v45h36v33H77v99c-1 23 16 31 38 25v30" id="p"/><g id="a"><use transform="matrix(0.06234567901234567,0,0,0.06234567901234567,0,0)" xlink:href="#g"/><use transform="matrix(0.06234567901234567,0,0,0.06234567901234567,20.698765432098764,0)" xlink:href="#h"/><use transform="matrix(0.06234567901234567,0,0,0.06234567901234567,29.42716049382716,0)" xlink:href="#i"/><use transform="matrix(0.06234567901234567,0,0,0.06234567901234567,41.89629629629629,0)" xlink:href="#j"/><use transform="matrix(0.06234567901234567,0,0,0.06234567901234567,55.55,0)" xlink:href="#j"/><use transform="matrix(0.06234567901234567,0,0,0.06234567901234567,69.2037037037037,0)" xlink:href="#k"/><use transform="matrix(0.06234567901234567,0,0,0.06234567901234567,81.67283950617283,0)" xlink:href="#h"/><use transform="matrix(0.06234567901234567,0,0,0.06234567901234567,90.40123456790123,0)" xlink:href="#l"/><use transform="matrix(0.06234567901234567,0,0,0.06234567901234567,106.54876543209875,0)" xlink:href="#m"/><use transform="matrix(0.06234567901234567,0,0,0.06234567901234567,120.20246913580245,0)" xlink:href="#n"/><use transform="matrix(0.06234567901234567,0,0,0.06234567901234567,140.15308641975307,0)" xlink:href="#j"/><use transform="matrix(0.06234567901234567,0,0,0.06234567901234567,153.80679012345678,0)" xlink:href="#m"/><use transform="matrix(0.06234567901234567,0,0,0.06234567901234567,167.4604938271605,0)" xlink:href="#o"/><use transform="matrix(0.06234567901234567,0,0,0.06234567901234567,181.1141975308642,0)" xlink:href="#k"/><use transform="matrix(0.06234567901234567,0,0,0.06234567901234567,193.58333333333334,0)" xlink:href="#o"/><use transform="matrix(0.06234567901234567,0,0,0.06234567901234567,207.23703703703706,0)" xlink:href="#p"/></g><path fill="#3a414a" d="M136-208V0H84v-208H4v-40h212v40h-80" id="q"/><path fill="#3a414a" d="M147 0L96-86 75-71V0H25v-261h50v150l67-79h53l-66 74L201 0h-54" id="r"/><path fill="#3a414a" d="M24 0v-248h195v40H76v63h132v40H76v65h150V0H24" id="s"/><path fill="#3a414a" d="M88-194c31-1 46 15 58 34l-1-101h50l1 261h-48c-2-10 0-23-3-31C134-8 116 4 84 4 32 4 16-41 15-95c0-56 19-97 73-99zm17 164c33 0 40-30 41-66 1-37-9-64-41-64s-38 30-39 65c0 43 13 65 39 65" id="t"/><path fill="#3a414a" d="M25-224v-37h50v37H25zM25 0v-190h50V0H25" id="u"/><g id="b"><use transform="matrix(0.06234567901234567,0,0,0.06234567901234567,0,0)" xlink:href="#q"/><use transform="matrix(0.06234567901234567,0,0,0.06234567901234567,12.406790123456789,0)" xlink:href="#h"/><use transform="matrix(0.06234567901234567,0,0,0.06234567901234567,21.135185185185183,0)" xlink:href="#i"/><use transform="matrix(0.06234567901234567,0,0,0.06234567901234567,33.60432098765432,0)" xlink:href="#i"/><use transform="matrix(0.06234567901234567,0,0,0.06234567901234567,46.07345679012345,0)" xlink:href="#r"/><use transform="matrix(0.06234567901234567,0,0,0.06234567901234567,58.542592592592584,0)" xlink:href="#s"/><use transform="matrix(0.06234567901234567,0,0,0.06234567901234567,73.50555555555555,0)" xlink:href="#t"/><use transform="matrix(0.06234567901234567,0,0,0.06234567901234567,87.15925925925924,0)" xlink:href="#u"/><use transform="matrix(0.06234567901234567,0,0,0.06234567901234567,93.39382716049381,0)" xlink:href="#p"/><use transform="matrix(0.06234567901234567,0,0,0.06234567901234567,100.81296296296294,0)" xlink:href="#m"/><use transform="matrix(0.06234567901234567,0,0,0.06234567901234567,114.46666666666664,0)" xlink:href="#h"/><use transform="matrix(0.06234567901234567,0,0,0.06234567901234567,123.19506172839503,0)" xlink:href="#l"/><use transform="matrix(0.06234567901234567,0,0,0.06234567901234567,139.34259259259255,0)" xlink:href="#m"/><use transform="matrix(0.06234567901234567,0,0,0.06234567901234567,152.99629629629626,0)" xlink:href="#n"/><use transform="matrix(0.06234567901234567,0,0,0.06234567901234567,172.94691358024687,0)" xlink:href="#j"/><use transform="matrix(0.06234567901234567,0,0,0.06234567901234567,186.60061728395058,0)" xlink:href="#m"/><use transform="matrix(0.06234567901234567,0,0,0.06234567901234567,200.2543209876543,0)" xlink:href="#o"/><use transform="matrix(0.06234567901234567,0,0,0.06234567901234567,213.908024691358,0)" xlink:href="#k"/><use transform="matrix(0.06234567901234567,0,0,0.06234567901234567,226.37716049382715,0)" xlink:href="#o"/><use transform="matrix(0.06234567901234567,0,0,0.06234567901234567,240.03086419753086,0)" xlink:href="#p"/></g><g id="c"><use transform="matrix(0.06234567901234567,0,0,0.06234567901234567,0,0)" xlink:href="#l"/><use transform="matrix(0.06234567901234567,0,0,0.06234567901234567,16.147530864197527,0)" xlink:href="#m"/><use transform="matrix(0.06234567901234567,0,0,0.06234567901234567,29.80123456790123,0)" xlink:href="#n"/><use transform="matrix(0.06234567901234567,0,0,0.06234567901234567,49.75185185185184,0)" xlink:href="#j"/><use transform="matrix(0.06234567901234567,0,0,0.06234567901234567,63.40555555555554,0)" xlink:href="#m"/><use transform="matrix(0.06234567901234567,0,0,0.06234567901234567,77.05925925925924,0)" xlink:href="#o"/><use transform="matrix(0.06234567901234567,0,0,0.06234567901234567,90.71296296296293,0)" xlink:href="#k"/><use transform="matrix(0.06234567901234567,0,0,0.06234567901234567,103.18209876543207,0)" xlink:href="#o"/><use transform="matrix(0.06234567901234567,0,0,0.06234567901234567,116.83580246913577,0)" xlink:href="#p"/></g><path fill="#3a414a" d="M182-182c0 78-84 86-111 141h115V0H12c-6-101 99-100 120-180 1-22-12-31-33-32-23 0-32 14-35 34l-49-3c5-45 32-70 84-70 51 0 83 22 83 69" id="v"/><use transform="matrix(0.06234567901234567,0,0,0.06234567901234567,0,0)" xlink:href="#v" id="d"/><path fill="#3a414a" d="M128-127c34 4 56 21 59 58 7 91-148 94-172 28-4-9-6-17-7-26l51-5c1 24 16 35 40 36 23 0 39-12 38-36-1-31-31-36-65-34v-40c32 2 59-3 59-33 0-20-13-33-34-33s-33 13-35 32l-50-3c6-44 37-68 86-68 50 0 83 20 83 66 0 35-22 52-53 58" id="w"/><use transform="matrix(0.06234567901234567,0,0,0.06234567901234567,0,0)" xlink:href="#w" id="e"/><path fill="#3a414a" d="M108 0H70L1-190h34L89-25l56-165h34" id="x"/><path fill="#3a414a" d="M24-231v-30h32v30H24zM24 0v-190h32V0H24" id="y"/><path fill="#3a414a" d="M100-194c63 0 86 42 84 106H49c0 40 14 67 53 68 26 1 43-12 49-29l28 8c-11 28-37 45-77 45C44 4 14-33 15-96c1-61 26-98 85-98zm52 81c6-60-76-77-97-28-3 7-6 17-6 28h103" id="z"/><path fill="#3a414a" d="M206 0h-36l-40-164L89 0H53L-1-190h32L70-26l43-164h34l41 164 42-164h31" id="A"/><g id="f"><use transform="matrix(0.06234567901234565,0,0,0.06234567901234565,0,0)" xlink:href="#x"/><use transform="matrix(0.06234567901234565,0,0,0.06234567901234565,11.222222222222218,0)" xlink:href="#y"/><use transform="matrix(0.06234567901234565,0,0,0.06234567901234565,16.147530864197524,0)" xlink:href="#z"/><use transform="matrix(0.06234567901234565,0,0,0.06234567901234565,28.616666666666653,0)" xlink:href="#A"/></g></defs></g></svg>